<?xml version="1.0" encoding="UTF-8"?>
<svg id="Calque_2" data-name="Calque 2" xmlns="http://www.w3.org/2000/svg" viewBox="0 0 533.58 533.58">
  <defs>
    <style>
      .cls-1 {
        fill: none;
      }

      .cls-1, .cls-2, .cls-3, .cls-4, .cls-5 {
        stroke-width: 0px;
      }

      .cls-3 {
        fill: #2c6298;
      }

      .cls-4 {
        fill: #286299;
      }

      .cls-5 {
        fill: #fcbc28;
      }
    </style>
  </defs>
  <path class="cls-1" d="m152.4,108.41h138.94c3.64,0,6.6,2.96,6.6,6.6v117.43h47.98c5.47,0,9.92-4.45,9.92-9.92V90.57H87.34v110.87l13.7-2.99-1.21-5.52c-.12-.54.22-1.07.76-1.19l13-2.84c.54-.12,1.07.22,1.19.76l2.84,13c.12.54-.22,1.07-.76,1.19l-5.52,1.21,5.98,27.4h28.47v-117.43c0-3.64,2.96-6.6,6.6-6.6Z"/>
  <circle class="cls-5" cx="165.89" cy="76.05" r="7.26"/>
  <circle class="cls-5" cx="137.73" cy="76.05" r="7.26"/>
  <circle class="cls-5" cx="109.58" cy="76.05" r="7.26"/>
  <rect class="cls-4" x="176.1" y="192.91" width="91.53" height="14.51" rx="1.68" ry="1.68"/>
  <rect class="cls-4" x="188.58" y="216.05" width="66.56" height="14.51" rx="1.68" ry="1.68"/>
  <path class="cls-2" d="m174.05,251.19h95.63c.55,0,1-.45,1-1s-.45-1-1-1h-95.63c-.55,0-1,.45-1,1s.45,1,1,1Z"/>
  <path class="cls-2" d="m174.05,268.68h95.63c.55,0,1-.45,1-1s-.45-1-1-1h-95.63c-.55,0-1,.45-1,1s.45,1,1,1Z"/>
  <path class="cls-2" d="m174.05,286.17h95.63c.55,0,1-.45,1-1s-.45-1-1-1h-95.63c-.55,0-1,.45-1,1s.45,1,1,1Z"/>
  <path class="cls-2" d="m263.42,122.49h-83.11c-1.81,0-3.47.65-4.76,1.72-.06.05-.12.11-.18.16-1.55,1.37-2.53,3.37-2.53,5.59v40.07c0,2.2.96,4.18,2.48,5.55.1.09.2.18.3.26,1.28,1.04,2.92,1.67,4.69,1.67h83.11c4.12,0,7.47-3.35,7.47-7.48v-40.07c0-4.12-3.35-7.48-7.47-7.48Zm5.47,47.55c0,1.41-.54,2.69-1.42,3.66l-43.48-23.7,43.48-23.7c.88.97,1.42,2.25,1.42,3.66v40.07Zm-5.47,5.48h-83.11c-.8,0-1.55-.17-2.23-.48l43.83-23.89,43.79,23.87c-.7.32-1.47.51-2.28.51Zm-88.58-5.48v-40.07c0-1.42.55-2.72,1.45-3.7l43.54,23.73-43.54,23.73c-.89-.98-1.45-2.27-1.45-3.7Zm5.47-45.55h83.11c.82,0,1.59.18,2.28.51l-43.79,23.87-43.83-23.89c.68-.31,1.44-.48,2.23-.48Z"/>
  <path class="cls-2" d="m345.91,58.81H97.25c-6.57,0-11.92,5.35-11.92,11.92v131.14l-27.26,5.95-1.21-5.52c-.12-.54-.65-.88-1.19-.76l-13,2.84c-.54.12-.88.65-.76,1.19l2.84,13c.1.47.52.79.98.79.07,0,.14,0,.21-.02l5.52-1.21,9.38,42.96-5.52,1.21c-.54.12-.88.65-.76,1.19l2.84,13c.1.47.52.79.98.79.07,0,.14,0,.21-.02l13-2.84c.54-.12.88-.65.76-1.19l-1.21-5.52,42.96-9.38,1.21,5.52c.1.47.52.79.98.79.07,0,.14,0,.21-.02l13-2.84c.54-.12.88-.65.76-1.19l-2.84-13c-.12-.54-.65-.88-1.19-.76l-5.52,1.21-2.96-13.56h28.04v71.41c0,3.64,2.96,6.6,6.6,6.6h138.94c3.64,0,6.6-2.96,6.6-6.6v-71.41h47.98c6.57,0,11.92-5.35,11.92-11.92V70.73c0-6.57-5.35-11.92-11.92-11.92Zm-180.02,9.98c4.01,0,7.26,3.25,7.26,7.26s-3.25,7.26-7.26,7.26-7.26-3.25-7.26-7.26,3.25-7.26,7.26-7.26Zm-28.16,0c4.01,0,7.26,3.25,7.26,7.26s-3.25,7.26-7.26,7.26-7.26-3.25-7.26-7.26,3.25-7.26,7.26-7.26Zm-28.16,0c4.01,0,7.26,3.25,7.26,7.26s-3.25,7.26-7.26,7.26-7.26-3.25-7.26-7.26,3.25-7.26,7.26-7.26Zm-57.55,147.16l-.98.21-4.54.99-2.41-11.04,11.04-2.41.99,4.54.21.98.21.98.99,4.54-4.54.99-.98.21Zm7.13,59.12l-2.41-11.04,4.54-.99.98-.21.98-.21,4.54-.99.99,4.54.21.98.21.98.99,4.54-11.04,2.41Zm61.02-24.9l.98-.21,4.54-.99,2.41,11.04-11.04,2.41-.99-4.54-.21-.98-.21-.98-.99-4.54,4.54-.99.98-.21Zm-1.4-1.74l-5.52,1.21c-.54.12-.88.65-.76,1.19l1.21,5.52-42.96,9.38-1.21-5.52c-.12-.54-.65-.88-1.19-.76l-5.52,1.21-9.38-42.96,5.52-1.21c.54-.12.88-.65.76-1.19l-1.21-5.52,26.83-5.86,2-.44,14.13-3.09,1.21,5.52c.1.47.52.79.98.79.07,0,.14,0,.21-.02l5.52-1.21,5.89,26.97.44,2,3.06,13.99Zm-16.76-54.97l11.04-2.41,2.41,11.04-4.54.99-.98.21-.98.21-4.54.99-.99-4.54-.21-.98-.21-.98-.99-4.54Zm193.93,38.98v73.41c0,2.54-2.06,4.6-4.6,4.6h-138.94c-2.54,0-4.6-2.06-4.6-4.6V115.01c0-2.54,2.06-4.6,4.6-4.6h138.94c2.54,0,4.6,2.06,4.6,4.6v117.43Zm59.9-9.92c0,5.47-4.45,9.92-9.92,9.92h-47.98v-117.43c0-3.64-2.96-6.6-6.6-6.6h-138.94c-3.64,0-6.6,2.96-6.6,6.6v117.43h-28.47l-5.98-27.4,5.52-1.21c.54-.12.88-.65.76-1.19l-2.84-13c-.12-.54-.65-.88-1.19-.76l-13,2.84c-.54.12-.88.65-.76,1.19l1.21,5.52-13.7,2.99v-110.87h268.49v131.97Z"/>
  <path class="cls-3" d="m96.83,218.81l-.69-3.17c-.29-1.35-1.62-2.2-2.98-1.91l-5.82,1.27-2,.44-13.72,3c-.65.14-1.21.53-1.57,1.09-.36.56-.48,1.24-.34,1.88l.69,3.17c.29,1.35,1.63,2.21,2.98,1.91l6.42-1.4,5.13,23.48c.26,1.17,1.29,1.97,2.44,1.97.18,0,.36-.02.54-.06l3.78-.82c.65-.14,1.21-.53,1.57-1.09.36-.56.48-1.24.34-1.88l-3.14-14.38-.73-3.34-1.26-5.76,6.46-1.41c.65-.14,1.21-.53,1.57-1.09.36-.56.48-1.24.34-1.88Z"/>
  <path class="cls-2" d="m362.45,254.35l-42.82,81.83,129.58,67.81,42.82-81.83-129.58-67.81Zm85.91,146.94l-126.03-65.96,40.97-78.28,126.03,65.96-40.97,78.28Z"/>
  <polygon class="cls-4" points="406.53 334.74 400.59 307.56 362.36 322.78 431.47 360.03 421.32 334.73 406.53 334.74"/>
  <path class="cls-4" d="m432.66,317.43c-1.2-1.25-2.82-1.95-4.56-1.97h-.08c-3.54,0-6.48,2.88-6.57,6.45-.04,1.76.6,3.42,1.82,4.68,1.2,1.25,2.82,1.95,4.56,1.97h.08c3.54,0,6.48-2.88,6.57-6.45.04-1.76-.6-3.43-1.82-4.69Zm-4.75,7.13h-.03c-.66,0-1.27-.27-1.73-.75-.47-.48-.71-1.13-.7-1.81.03-1.41,1.18-2.55,2.57-2.55h.03c.66,0,1.27.27,1.73.75.47.48.71,1.13.7,1.81-.04,1.41-1.18,2.54-2.57,2.54Z"/>
  <polygon class="cls-4" points="443.79 388.09 438.03 385.08 437.1 386.85 444.63 390.79 448.57 383.26 446.8 382.33 443.79 388.09"/>
  <rect class="cls-4" x="415.94" y="367.74" width="2" height="14.86" transform="translate(-108.79 570.61) rotate(-62.37)"/>
  <rect class="cls-4" x="361.53" y="339.27" width="2" height="14.86" transform="translate(-112.74 507.16) rotate(-62.38)"/>
  <rect class="cls-4" x="388.74" y="353.51" width="2" height="14.86" transform="translate(-110.76 538.9) rotate(-62.38)"/>
  <polygon class="cls-4" points="339.62 326.24 337.85 325.32 333.91 332.85 341.44 336.79 342.37 335.02 336.61 332 339.62 326.24"/>
  <rect class="cls-4" x="342.8" y="299.88" width="17.94" height="2" transform="translate(-77.92 473.03) rotate(-62.37)"/>
  <polygon class="cls-4" points="368.7 270.68 374.46 273.7 375.39 271.92 367.86 267.98 363.92 275.51 365.69 276.44 368.7 270.68"/>
  <rect class="cls-4" x="394.55" y="276.18" width="2" height="14.86" transform="translate(-39.15 502.54) rotate(-62.37)"/>
  <rect class="cls-4" x="421.75" y="290.41" width="2" height="14.86" transform="translate(-37.15 534.32) rotate(-62.38)"/>
  <rect class="cls-4" x="448.96" y="304.65" width="2" height="14.86" transform="translate(-35.19 566.03) rotate(-62.37)"/>
  <polygon class="cls-4" points="471.05 321.99 470.12 323.76 475.88 326.77 472.87 332.53 474.64 333.46 478.58 325.93 471.05 321.99"/>
  <rect class="cls-4" x="451.75" y="356.9" width="17.94" height="2" transform="translate(-70.07 599.99) rotate(-62.36)"/>
  <path class="cls-2" d="m200.51,359.88l-.54-1.93c-5.29,1.49-9.97,4.28-13.2,7.86l1.49,1.34c2.98-3.3,7.33-5.89,12.26-7.28Z"/>
  <path class="cls-2" d="m216.82,408.27c-5.1-.95-9.78-2.49-13.92-4.59l-.91,1.78c4.31,2.19,9.17,3.8,14.46,4.78l.37-1.97Z"/>
  <path class="cls-2" d="m191.91,448.77l1.23,1.57c4.02-3.15,7.74-6.63,11.06-10.35l-1.49-1.33c-3.25,3.63-6.88,7.03-10.81,10.11Z"/>
  <path class="cls-2" d="m135.35,471.1l.28,1.98c5.06-.73,10.05-1.69,14.83-2.86l-.48-1.94c-4.71,1.16-9.64,2.11-14.64,2.82Z"/>
  <path class="cls-2" d="m112.25,472.77c-4.74,0-7.59-.23-7.62-.24l-.17,1.99c.12.01,2.96.24,7.79.24,2.38,0,4.86-.06,7.35-.17l-.09-2c-2.46.11-4.9.17-7.25.17Z"/>
  <path class="cls-2" d="m165.16,463.59l.71,1.87c4.83-1.83,9.46-3.94,13.76-6.28l-.95-1.76c-4.22,2.29-8.77,4.37-13.52,6.16Z"/>
  <path class="cls-2" d="m182.59,381.53c.86,4.83,3.15,9.62,6.62,13.84l1.55-1.27c-3.25-3.96-5.39-8.43-6.19-12.93l-1.97.35Z"/>
  <path class="cls-2" d="m318.8,378.59l1.01,1.72c4.18-2.45,8.49-5.09,12.82-7.85l-1.07-1.69c-4.31,2.74-8.6,5.37-12.76,7.81Z"/>
  <path class="cls-2" d="m291.49,393.02l.84,1.81c4.38-2.04,8.92-4.29,13.47-6.69l-.93-1.77c-4.53,2.39-9.03,4.63-13.38,6.65Z"/>
  <path class="cls-2" d="m262.72,404.08l.57,1.92c4.61-1.36,9.41-3,14.26-4.87l-.72-1.87c-4.81,1.85-9.56,3.47-14.11,4.82Z"/>
  <path class="cls-2" d="m212.05,425.95l1.72,1.03c2.73-4.56,5.17-9.01,7.25-13.22l-1.79-.88c-2.05,4.16-4.47,8.56-7.17,13.08Z"/>
  <path class="cls-2" d="m232.53,409.36l.06,2c4.76-.15,9.82-.7,15.04-1.62l-.35-1.97c-5.12.91-10.09,1.44-14.75,1.59Z"/>
  <path class="cls-2" d="m228.05,367.91c-2.41-4.78-6.47-8.21-11.72-9.92l-.62,1.9c4.74,1.54,8.39,4.62,10.56,8.92l1.79-.9Z"/>
  <path class="cls-2" d="m225.35,398.25l1.9.63c1.79-5.35,2.89-10.34,3.29-14.84l-1.99-.18c-.38,4.34-1.46,9.18-3.19,14.38Z"/>
</svg>